# Blender 4.3.2
# www.blender.org
mtllib ceiling.mtl
g Base_Mesh
v -1.993095 0.393724 4.124109
v -1.993095 0.493724 4.124109
v -1.268095 0.493724 4.124109
v -1.268095 0.393724 4.124109
v -1.518095 0.493724 4.124109
v -1.518095 0.393724 4.124109
v -1.993095 0.393724 3.392859
v -1.993095 0.493724 3.392859
v -1.268095 0.393724 3.392859
v -1.268095 0.493724 3.392859
v -1.518095 0.393724 3.392859
v -1.518095 0.493724 3.392859
v -1.993095 0.393724 3.630359
v -1.268095 0.393724 3.630359
v -1.268095 0.493724 3.630359
v -1.518095 0.393724 3.630359
v -1.518095 0.493724 3.630359
v -1.993095 0.493724 3.630359
v -1.268095 0.093724 3.392859
v -1.518095 0.093724 3.392859
v -1.268095 0.093724 3.630359
v -1.518095 0.093724 3.630359
v 1.993095 0.393724 4.124109
v 1.993095 0.493724 4.124109
v 0.000000 0.393724 4.124109
v 0.000000 0.493724 4.124109
v 1.268095 0.493724 4.124109
v 1.268095 0.393724 4.124109
v 1.518095 0.493724 4.124109
v 1.518095 0.393724 4.124109
v 1.993095 0.393724 3.392859
v 1.993095 0.493724 3.392859
v 0.000000 0.493724 3.392859
v 0.000000 0.393724 3.392859
v 1.268095 0.393724 3.392859
v 1.268095 0.493724 3.392859
v 1.518095 0.393724 3.392859
v 1.518095 0.493724 3.392859
v 1.993095 0.393724 3.630359
v 0.000000 0.493724 3.630359
v 0.000000 0.393724 3.630359
v 1.268095 0.393724 3.630359
v 1.268095 0.493724 3.630359
v 1.518095 0.393724 3.630359
v 1.518095 0.493724 3.630359
v 1.993095 0.493724 3.630359
v 1.268095 0.093724 3.392859
v 1.518095 0.093724 3.392859
v 1.268095 0.093724 3.630359
v 1.518095 0.093724 3.630359
v -1.993095 0.393724 -4.124109
v -1.993095 0.493724 -4.124109
v -1.993095 0.393724 0.000000
v -1.993095 0.493724 0.000000
v -1.268095 0.493724 -4.124109
v -1.268095 0.393724 0.000000
v -1.268095 0.393724 -4.124109
v -1.268095 0.493724 0.000000
v -1.518095 0.493724 -4.124109
v -1.518095 0.393724 0.000000
v -1.518095 0.393724 -4.124109
v -1.518095 0.493724 0.000000
v -1.993095 0.393724 -3.392859
v -1.993095 0.493724 -3.392859
v -1.268095 0.393724 -3.392859
v -1.268095 0.493724 -3.392859
v -1.518095 0.393724 -3.392859
v -1.518095 0.493724 -3.392859
v -1.993095 0.393724 -3.630359
v -1.268095 0.393724 -3.630359
v -1.268095 0.493724 -3.630359
v -1.518095 0.393724 -3.630359
v -1.518095 0.493724 -3.630359
v -1.993095 0.493724 -3.630359
v -1.268095 0.093724 -3.392859
v -1.518095 0.093724 -3.392859
v -1.268095 0.093724 -3.630359
v -1.518095 0.093724 -3.630359
v 1.993095 0.393724 -4.124109
v 1.993095 0.493724 -4.124109
v 1.993095 0.393724 0.000000
v 1.993095 0.493724 0.000000
v 0.000000 0.393724 -4.124109
v 0.000000 0.493724 -4.124109
v 0.000000 0.493724 0.000000
v 0.000000 0.393724 0.000000
v 1.268095 0.493724 -4.124109
v 1.268095 0.393724 0.000000
v 1.268095 0.393724 -4.124109
v 1.268095 0.493724 0.000000
v 1.518095 0.493724 -4.124109
v 1.518095 0.393724 0.000000
v 1.518095 0.393724 -4.124109
v 1.518095 0.493724 0.000000
v 1.993095 0.393724 -3.392859
v 1.993095 0.493724 -3.392859
v 0.000000 0.493724 -3.392859
v 0.000000 0.393724 -3.392859
v 1.268095 0.393724 -3.392859
v 1.268095 0.493724 -3.392859
v 1.518095 0.393724 -3.392859
v 1.518095 0.493724 -3.392859
v 1.993095 0.393724 -3.630359
v 0.000000 0.493724 -3.630359
v 0.000000 0.393724 -3.630359
v 1.268095 0.393724 -3.630359
v 1.268095 0.493724 -3.630359
v 1.518095 0.393724 -3.630359
v 1.518095 0.493724 -3.630359
v 1.993095 0.493724 -3.630359
v 1.268095 0.093724 -3.392859
v 1.518095 0.093724 -3.392859
v 1.268095 0.093724 -3.630359
v 1.518095 0.093724 -3.630359
vn -0.0000 -0.0000 1.0000
vn -0.0000 1.0000 -0.0000
vn -1.0000 -0.0000 -0.0000
vn -0.0000 -1.0000 -0.0000
vn -0.0000 -0.0000 -1.0000
vn 1.0000 -0.0000 -0.0000
vt 0.523280 0.982058
vt 0.467544 0.970324
vt 0.523280 0.970324
vt 0.467732 0.909895
vt 0.411996 0.967830
vt 0.411996 0.909895
vt 0.935464 0.882027
vt 0.947198 0.483915
vt 0.947198 0.882027
vt 0.701598 0.909895
vt 0.552802 0.967830
vt 0.552802 0.909895
vt 0.523468 0.967830
vt 0.523468 0.909895
vt 0.382662 0.909895
vt 0.233866 0.967830
vt 0.233866 0.909895
vt 0.701410 0.982058
vt 0.552614 0.970324
vt 0.701410 0.970324
vt 0.467732 0.967830
vt 0.382662 0.967830
vt 0.552615 0.982058
vt 0.411996 0.483915
vt 0.382662 0.882027
vt 0.382662 0.483915
vt 0.523468 0.483915
vt 0.467732 0.882027
vt 0.467732 0.483915
vt 0.233866 0.882027
vt 0.233866 0.483915
vt 0.552802 0.483915
vt 0.523468 0.882027
vt 0.701598 0.483915
vt 0.552802 0.882027
vt 0.935464 0.909894
vt 0.947198 0.909894
vt 0.411996 0.882027
vt 0.935464 0.967830
vt 0.947198 0.967830
vt 0.968630 0.970224
vt 0.997964 0.935023
vt 0.997964 0.970224
vt 0.701598 0.882027
vt 0.027868 0.997165
vt 0.000000 0.967830
vt 0.027868 0.967830
vt 0.970665 0.035201
vt 1.000000 0.000000
vt 1.000000 0.035201
vt 0.970665 0.281611
vt 0.998533 0.246410
vt 0.998533 0.281611
vt 0.970665 0.316813
vt 0.998533 0.316813
vt 0.935276 0.970324
vt 0.879541 0.982058
vt 0.879541 0.970324
vt 0.055736 0.967830
vt 0.000000 0.909895
vt 0.055736 0.909895
vt 0.958932 0.483915
vt 0.947198 0.085803
vt 0.958931 0.085803
vt 0.850394 0.967830
vt 0.850394 0.909894
vt 0.879728 0.967830
vt 0.879728 0.909894
vt 0.085070 0.909895
vt 0.850206 0.970324
vt 0.935464 0.967830
vt 0.935464 0.909894
vt 0.085070 0.967830
vt 0.850206 0.982058
vt 0.085070 0.882027
vt 0.055736 0.483915
vt 0.085070 0.483915
vt 0.935464 0.882027
vt 0.879728 0.483915
vt 0.935464 0.483915
vt 0.879728 0.882027
vt 0.850394 0.483915
vt 0.850394 0.882027
vt 0.947198 0.057936
vt 0.958931 0.057936
vt 0.055736 0.882027
vt 0.000000 0.483915
vt 0.947198 -0.000000
vt 0.958931 0.000000
vt 1.000000 0.070403
vt 0.970665 0.070403
vt 0.000000 0.882027
vt 0.027868 0.997165
vt 0.055736 0.967830
vt 0.055736 0.997165
vt 1.000000 0.105604
vt 0.970665 0.105604
vt 0.998533 0.352014
vt 0.970665 0.352014
vt 0.970665 0.352014
vt 0.998533 0.387216
vt 0.970665 0.387215
vt 0.935207 0.985296
vt 0.879471 0.997030
vt 0.879471 0.985296
vt 0.411996 0.000000
vt 0.467732 0.057936
vt 0.411996 0.057936
vt 0.935464 0.085803
vt 0.947198 0.085803
vt 0.552802 0.000000
vt 0.701598 0.057936
vt 0.552802 0.057936
vt 0.523467 0.000000
vt 0.523467 0.057936
vt 0.233866 0.000000
vt 0.382662 0.057936
vt 0.233866 0.057936
vt 0.850137 0.985296
vt 0.701341 0.997030
vt 0.701341 0.985296
vt 0.467732 0.000000
vt 0.382662 0.000000
vt 0.850137 0.997030
vt 0.382662 0.085803
vt 0.467732 0.085803
vt 0.233866 0.085803
vt 0.523467 0.085803
vt 0.552802 0.085803
vt 0.935464 0.057936
vt 0.947198 0.057936
vt 0.411996 0.085803
vt 0.935464 -0.000000
vt 0.947198 0.000000
vt 1.000000 0.140806
vt 0.970665 0.140806
vt 0.701598 0.085803
vt 0.083603 0.967830
vt 0.055736 0.997165
vt 1.000000 0.176007
vt 0.970665 0.176007
vt 0.998533 0.422417
vt 0.970665 0.422417
vt 0.998533 0.457618
vt 0.970665 0.457618
vt 0.523211 0.997030
vt 0.467475 0.985296
vt 0.523211 0.985296
vt 0.000000 0.057936
vt 0.055736 0.000000
vt 0.055736 0.057936
vt 0.958932 0.882027
vt 0.850394 0.000000
vt 0.850394 0.057936
vt 0.879728 0.000000
vt 0.879728 0.057936
vt 0.085070 0.057936
vt 0.552545 0.985296
vt 0.935464 0.000000
vt 0.935464 0.057936
vt 0.085070 0.000000
vt 0.552545 0.997030
vt 0.085070 0.085803
vt 0.935464 0.085803
vt 0.879728 0.085803
vt 0.850394 0.085803
vt 0.958932 0.909894
vt 0.055736 0.085803
vt 0.958932 0.967830
vt 0.970665 0.211208
vt 1.000000 0.211208
vt 0.000000 0.085803
vt 0.083603 0.967830
vt 0.111471 0.997165
vt 0.083603 0.997165
vt 0.970665 0.246410
vt 1.000000 0.246410
vt 0.970665 0.492820
vt 0.998533 0.492820
vt 0.970666 0.528021
vt 0.998533 0.528021
vt 0.467544 0.982058
vt 0.935464 0.483915
vt 0.701598 0.967830
vt 0.968630 0.935023
vt 0.000000 0.997165
vt 0.970665 0.000000
vt 0.935276 0.982058
vt 0.027868 0.967830
vt 0.998533 0.352014
vt 0.935207 0.997030
vt 0.701598 0.000000
vt 0.083603 0.997165
vt 0.998533 0.387215
vt 0.467475 0.997030
vt 0.000000 0.000000
vt 0.111471 0.967830
vt 0.970665 0.492820
s 0
g Base_Wood
usemtl Wood
f 5/1/1 1/2/1 6/3/1
f 18/4/2 5/5/2 17/6/2
f 8/7/3 53/8/3 7/9/3
f 41/10/4 4/11/4 14/12/4
f 14/12/4 6/13/4 16/14/4
f 15/15/2 26/16/2 40/17/2
f 26/18/1 4/19/1 25/20/1
f 16/14/4 1/21/4 13/4/4
f 17/6/2 3/22/2 15/15/2
f 3/23/1 6/3/1 4/19/1
f 62/24/2 10/25/2 58/26/2
f 60/27/4 7/28/4 53/29/4
f 58/26/2 33/30/2 85/31/2
f 56/32/4 11/33/4 60/27/4
f 86/34/4 9/35/4 56/32/4
f 18/36/3 7/9/3 13/37/3
f 54/29/2 12/38/2 62/24/2
f 2/39/3 13/37/3 1/40/3
f 12/38/2 15/15/2 10/25/2
f 11/33/4 13/4/4 7/28/4
f 10/25/2 40/17/2 33/30/2
f 16/41/1 21/42/1 14/43/1
f 34/44/4 14/12/4 9/35/4
f 8/28/2 17/6/2 12/38/2
f 19/45/4 22/46/4 20/47/4
f 9/48/5 20/49/5 11/50/5
f 11/51/3 22/52/3 16/53/3
f 14/54/6 19/53/6 9/55/6
f 23/56/1 29/57/1 30/58/1
f 29/59/2 46/60/2 45/61/2
f 81/62/6 32/63/6 31/64/6
f 28/65/4 41/10/4 42/66/4
f 30/67/4 42/66/4 44/68/4
f 26/16/2 43/69/2 40/17/2
f 28/70/1 26/18/1 25/20/1
f 23/71/4 44/68/4 39/72/4
f 27/73/2 45/61/2 43/69/2
f 30/58/1 27/74/1 28/70/1
f 36/75/2 94/76/2 90/77/2
f 31/78/4 92/79/4 81/80/4
f 33/30/2 90/77/2 85/31/2
f 37/81/4 88/82/4 92/79/4
f 35/83/4 86/34/4 88/82/4
f 31/64/6 46/84/6 39/85/6
f 38/86/2 82/87/2 94/76/2
f 39/85/6 24/88/6 23/89/6
f 43/69/2 38/86/2 36/75/2
f 39/72/4 37/81/4 31/78/4
f 40/17/2 36/75/2 33/30/2
f 49/48/1 44/90/1 42/91/1
f 42/66/4 34/44/4 35/83/4
f 45/61/2 32/92/2 38/86/2
f 50/93/4 47/94/4 48/95/4
f 48/91/5 35/96/5 37/97/5
f 50/54/6 37/98/6 44/99/6
f 47/100/3 42/101/3 35/102/3
f 51/103/5 59/104/5 61/105/5
f 59/106/2 74/107/2 73/108/2
f 53/8/3 64/109/3 63/110/3
f 57/111/4 105/112/4 70/113/4
f 61/114/4 70/113/4 72/115/4
f 84/116/2 71/117/2 104/118/2
f 57/119/5 84/120/5 83/121/5
f 51/122/4 72/115/4 69/107/4
f 55/123/2 73/108/2 71/117/2
f 61/105/5 55/124/5 57/119/5
f 66/125/2 62/24/2 58/26/2
f 63/126/4 60/27/4 53/29/4
f 97/127/2 58/26/2 85/31/2
f 67/128/4 56/32/4 60/27/4
f 65/129/4 86/34/4 56/32/4
f 63/110/3 74/130/3 69/131/3
f 68/132/2 54/29/2 62/24/2
f 69/131/3 52/133/3 51/134/3
f 71/117/2 68/132/2 66/125/2
f 69/107/4 67/128/4 63/126/4
f 104/118/2 66/125/2 97/127/2
f 77/97/5 72/135/5 70/136/5
f 70/113/4 98/137/4 65/129/4
f 73/108/2 64/126/2 68/132/2
f 78/138/4 75/139/4 76/59/4
f 76/136/1 65/140/1 67/141/1
f 78/102/3 67/142/3 72/143/3
f 75/143/6 70/144/6 65/145/6
f 91/146/5 79/147/5 93/148/5
f 110/149/2 91/150/2 109/151/2
f 96/9/6 81/62/6 95/152/6
f 105/112/4 89/153/4 106/154/4
f 106/154/4 93/155/4 108/156/4
f 107/157/2 84/116/2 104/118/2
f 84/120/5 89/158/5 83/121/5
f 108/156/4 79/159/4 103/160/4
f 109/151/2 87/161/2 107/157/2
f 87/162/5 93/148/5 89/158/5
f 94/76/2 100/163/2 90/77/2
f 92/79/4 95/164/4 81/80/4
f 90/77/2 97/127/2 85/31/2
f 88/82/4 101/165/4 92/79/4
f 86/34/4 99/166/4 88/82/4
f 110/37/6 95/152/6 103/167/6
f 82/87/2 102/168/2 94/76/2
f 80/40/6 103/167/6 79/169/6
f 102/168/2 107/157/2 100/163/2
f 101/165/4 103/160/4 95/164/4
f 100/163/2 104/118/2 97/127/2
f 108/170/5 113/140/5 106/171/5
f 98/137/4 106/154/4 99/166/4
f 96/172/2 109/151/2 102/168/2
f 111/173/4 114/174/4 112/175/4
f 99/176/1 112/171/1 101/177/1
f 101/178/6 114/144/6 108/179/6
f 106/180/3 111/179/3 99/181/3
f 5/1/1 2/182/1 1/2/1
f 18/4/2 2/21/2 5/5/2
f 8/7/3 54/183/3 53/8/3
f 41/10/4 25/184/4 4/11/4
f 14/12/4 4/11/4 6/13/4
f 15/15/2 3/22/2 26/16/2
f 26/18/1 3/23/1 4/19/1
f 16/14/4 6/13/4 1/21/4
f 17/6/2 5/5/2 3/22/2
f 3/23/1 5/1/1 6/3/1
f 62/24/2 12/38/2 10/25/2
f 60/27/4 11/33/4 7/28/4
f 58/26/2 10/25/2 33/30/2
f 56/32/4 9/35/4 11/33/4
f 86/34/4 34/44/4 9/35/4
f 18/36/3 8/7/3 7/9/3
f 54/29/2 8/28/2 12/38/2
f 2/39/3 18/36/3 13/37/3
f 12/38/2 17/6/2 15/15/2
f 11/33/4 16/14/4 13/4/4
f 10/25/2 15/15/2 40/17/2
f 16/41/1 22/185/1 21/42/1
f 34/44/4 41/10/4 14/12/4
f 8/28/2 18/4/2 17/6/2
f 19/45/4 21/186/4 22/46/4
f 9/48/5 19/187/5 20/49/5
f 11/51/3 20/176/3 22/52/3
f 14/54/6 21/51/6 19/53/6
f 23/56/1 24/188/1 29/57/1
f 29/59/2 24/46/2 46/60/2
f 81/62/6 82/8/6 32/63/6
f 28/65/4 25/184/4 41/10/4
f 30/67/4 28/65/4 42/66/4
f 26/16/2 27/73/2 43/69/2
f 28/70/1 27/74/1 26/18/1
f 23/71/4 30/67/4 44/68/4
f 27/73/2 29/59/2 45/61/2
f 30/58/1 29/57/1 27/74/1
f 36/75/2 38/86/2 94/76/2
f 31/78/4 37/81/4 92/79/4
f 33/30/2 36/75/2 90/77/2
f 37/81/4 35/83/4 88/82/4
f 35/83/4 34/44/4 86/34/4
f 31/64/6 32/63/6 46/84/6
f 38/86/2 32/92/2 82/87/2
f 39/85/6 46/84/6 24/88/6
f 43/69/2 45/61/2 38/86/2
f 39/72/4 44/68/4 37/81/4
f 40/17/2 43/69/2 36/75/2
f 49/48/1 50/50/1 44/90/1
f 42/66/4 41/10/4 34/44/4
f 45/61/2 46/60/2 32/92/2
f 50/93/4 49/189/4 47/94/4
f 48/91/5 47/90/5 35/96/5
f 50/54/6 48/55/6 37/98/6
f 47/100/3 49/190/3 42/101/3
f 51/103/5 52/191/5 59/104/5
f 59/106/2 52/122/2 74/107/2
f 53/8/3 54/183/3 64/109/3
f 57/111/4 83/192/4 105/112/4
f 61/114/4 57/111/4 70/113/4
f 84/116/2 55/123/2 71/117/2
f 57/119/5 55/124/5 84/120/5
f 51/122/4 61/114/4 72/115/4
f 55/123/2 59/106/2 73/108/2
f 61/105/5 59/104/5 55/124/5
f 66/125/2 68/132/2 62/24/2
f 63/126/4 67/128/4 60/27/4
f 97/127/2 66/125/2 58/26/2
f 67/128/4 65/129/4 56/32/4
f 65/129/4 98/137/4 86/34/4
f 63/110/3 64/109/3 74/130/3
f 68/132/2 64/126/2 54/29/2
f 69/131/3 74/130/3 52/133/3
f 71/117/2 73/108/2 68/132/2
f 69/107/4 72/115/4 67/128/4
f 104/118/2 71/117/2 66/125/2
f 77/97/5 78/96/5 72/135/5
f 70/113/4 105/112/4 98/137/4
f 73/108/2 74/107/2 64/126/2
f 78/138/4 77/193/4 75/139/4
f 76/136/1 75/135/1 65/140/1
f 78/102/3 76/194/3 67/142/3
f 75/143/6 77/142/6 70/144/6
f 91/146/5 80/195/5 79/147/5
f 110/149/2 80/196/2 91/150/2
f 96/9/6 82/8/6 81/62/6
f 105/112/4 83/192/4 89/153/4
f 106/154/4 89/153/4 93/155/4
f 107/157/2 87/161/2 84/116/2
f 84/120/5 87/162/5 89/158/5
f 108/156/4 93/155/4 79/159/4
f 109/151/2 91/150/2 87/161/2
f 87/162/5 91/146/5 93/148/5
f 94/76/2 102/168/2 100/163/2
f 92/79/4 101/165/4 95/164/4
f 90/77/2 100/163/2 97/127/2
f 88/82/4 99/166/4 101/165/4
f 86/34/4 98/137/4 99/166/4
f 110/37/6 96/9/6 95/152/6
f 82/87/2 96/172/2 102/168/2
f 80/40/6 110/37/6 103/167/6
f 102/168/2 109/151/2 107/157/2
f 101/165/4 108/156/4 103/160/4
f 100/163/2 107/157/2 104/118/2
f 108/170/5 114/141/5 113/140/5
f 98/137/4 105/112/4 106/154/4
f 96/172/2 110/149/2 109/151/2
f 111/173/4 113/197/4 114/174/4
f 99/176/1 111/170/1 112/171/1
f 101/178/6 112/145/6 114/144/6
f 106/180/3 113/198/3 111/179/3
